<svg xmlns="http://www.w3.org/2000/svg" viewBox="0 0 776.4123 99.999997" width="150px" height="49px"><path style="-inkscape-font-specification:dsquared-icons" d="M776.412 69.396h-38.596v-.195c3.899-2.339 8.187-4.678 12.476-7.018 4.289-2.339 8.382-4.873 12.086-7.797 3.704-2.729 6.823-6.043 9.162-9.942 2.339-3.899 3.509-8.577 3.509-14.035 0-4.483-.975-8.382-2.534-11.891-1.754-3.314-4.094-6.043-7.018-8.382-3.119-2.339-6.628-3.899-10.916-5.068-4.289-1.17-9.162-1.754-14.23-1.754-5.848 0-10.916.975-15.595 2.534-4.678 1.754-8.382 4.094-11.501 7.212-3.119 3.314-5.653 7.212-7.212 11.891-1.559 4.678-2.144 9.747-1.754 15.595h23.002c0-2.534.195-4.873.585-7.018.39-2.144.975-4.094 2.144-5.653.78-1.559 2.144-2.729 3.899-3.509 1.559-.78 3.704-1.365 6.238-1.365 1.365 0 2.729.195 3.899.585 1.17.39 2.339.78 3.314 1.559.78.975 1.559 2.144 2.144 3.314.585 1.365.975 2.924.975 4.873 0 1.559-.39 3.119-1.17 4.288-.78 1.365-1.754 2.534-2.924 3.314-1.17 1.17-2.534 1.949-3.899 2.729-1.365.78-2.534 1.559-3.509 2.144-2.729 1.754-5.653 3.509-8.382 5.068-2.924 1.754-5.653 3.509-8.187 5.458-2.729 1.949-5.263 3.899-7.602 5.848-2.339 2.144-4.483 4.483-6.043 6.823-1.17 1.559-2.144 3.314-2.924 4.873-.78 1.559-1.559 3.314-1.949 4.873-.585 1.949-.975 3.704-1.17 5.653-.39 1.949-.39 3.899-.195 5.848h73.879v-20.857zm-123.002 20.858c7.407 0 14.035-.975 19.688-2.924 5.458-1.949 10.136-5.068 14.035-8.967 3.509-3.704 6.238-8.382 8.187-13.84 1.754-5.458 2.729-11.501 2.729-18.324 0-5.458-.78-10.916-2.144-16.179-1.559-5.263-3.704-9.941-6.628-14.23-3.119-3.899-7.212-7.212-12.281-9.747-5.068-2.534-11.111-3.899-18.324-3.899h-44.249v88.11h38.986zm-3.509-65.497c4.678 0 8.577.975 11.501 2.534 2.729 1.754 4.873 3.704 6.433 5.848 1.365 2.339 2.339 4.678 2.729 7.018.39 2.339.585 4.288.585 5.653 0 2.144-.39 4.483-.78 7.018-.39 2.534-1.365 4.873-2.534 7.018-1.559 2.339-3.509 4.094-6.043 5.653-2.534 1.559-5.848 2.339-9.942 2.339h-10.526v-43.079h8.576zm-119.883-22.612v88.11h73.684v-22.417h-46.784v-11.111h41.326v-21.052h-41.326v-10.916h45.419v-22.612h-72.319zm-7.407 88.109c-.585-.78-.975-2.144-1.365-3.899-.39-1.559-.78-3.509-.78-5.458-.39-1.754-.585-3.509-.585-5.263 0-1.559-.195-2.924-.195-4.094-.195-2.729-.585-5.458-1.365-7.797-.78-2.339-1.559-4.483-2.534-6.433-1.17-1.754-2.534-3.314-3.899-4.678-1.559-1.365-3.119-2.339-4.873-3.119 2.144-.78 4.094-2.144 5.653-3.704 1.559-1.559 2.924-3.314 4.094-5.263 1.17-1.949 1.949-3.899 2.534-6.238.39-2.339.78-4.678.78-7.018 0-4.094-.78-7.797-2.339-10.916-1.559-3.119-3.704-5.653-6.238-7.797-2.729-2.144-5.653-3.704-9.162-4.873-3.509-.975-7.018-1.559-10.916-1.559h-51.072v88.11h26.9v-30.605h14.23c2.729 0 4.678.585 6.238 1.559 1.559.975 2.729 2.339 3.509 3.899.78 1.559 1.17 3.509 1.559 5.458.39 2.144.585 4.288.78 6.238 0 1.17.195 2.339.39 3.509 0 1.17.195 2.144.39 3.314 0 1.17.195 2.339.585 3.509.195 1.17.39 2.144.78 3.119h26.9zm-42.885-67.056c2.534 0 4.678.195 6.433.585 1.559.39 2.924.975 4.094 1.754.975.78 1.754 1.559 2.144 2.729.39 1.17.78 2.339.78 3.704 0 1.949-.39 3.509-1.17 4.678-.78 1.17-1.754 2.144-2.924 2.534-1.17.78-2.534 1.17-3.899 1.365-1.559.195-2.729.195-3.899.195h-14.036v-17.544h12.476zm-75.049 54.581l1.754 6.238 1.949 6.238h27.875l-15.984-44.055-15.789-44.055h-26.315l-16.179 44.055-15.984 44.055h27.095l1.949-6.238 1.949-6.238h27.68zm-13.06-46.004l3.899 13.645 3.899 13.45h-16.569l4.094-13.45 4.288-13.645h.39zm-85.575 60.624c6.628 0 12.281-.585 17.349-2.144 5.068-1.559 9.162-3.704 12.476-6.823 3.314-2.924 5.848-6.628 7.407-11.111 1.559-4.483 2.534-9.747 2.534-15.984v-54.19h-26.9v48.149l-.195 7.018c-.195 2.339-.585 4.483-1.365 6.433-.975 1.949-2.339 3.704-3.899 4.873-1.754 1.17-4.288 1.754-7.407 1.754-3.314 0-5.848-.585-7.602-1.754-1.754-1.17-2.924-2.924-3.704-4.873-.975-1.949-1.559-4.094-1.559-6.433-.195-2.339-.195-4.678-.195-7.018v-48.149h-26.9v54.19c0 6.238.78 11.501 2.534 15.984 1.559 4.483 4.094 8.187 7.407 11.111 3.314 3.119 7.407 5.263 12.476 6.823 5.068 1.559 10.916 2.144 17.544 2.144zm-60.429 7.602l6.043-6.043 6.043-6.043-5.263-5.263-5.068-5.458c1.559-1.949 2.924-4.094 4.288-6.433 1.17-2.339 2.339-4.678 3.314-7.407.78-2.534 1.365-5.263 1.754-8.187.39-2.729.78-5.848.78-8.967 0-6.628-1.17-12.865-3.314-18.518-2.144-5.653-5.068-10.526-8.772-14.62-3.899-3.899-8.577-7.212-14.035-9.552-5.458-2.339-11.501-3.509-18.129-3.509-6.628 0-12.671 1.17-18.129 3.509-5.458 2.339-10.136 5.653-14.035 9.552-3.899 4.094-6.823 8.967-8.967 14.62-2.144 5.653-3.119 11.891-3.119 18.518 0 6.823.975 13.06 3.119 18.713 2.144 5.653 5.068 10.526 8.967 14.62 3.899 4.094 8.577 7.212 14.035 9.552 5.458 2.339 11.501 3.314 18.129 3.314 1.949 0 3.899 0 5.848-.195 1.949-.195 3.704-.585 5.653-.975 1.754-.39 3.509-.78 5.068-1.365 1.559-.585 2.924-1.365 4.094-2.144l5.848 6.238 5.848 6.043zm-32.359-77.973c1.559 0 3.509.39 5.458 1.17 1.949.78 3.899 1.949 5.848 3.509 1.559 1.949 3.119 4.483 4.288 7.602 1.17 3.119 1.754 7.212 1.754 11.891 0 1.365-.195 2.534-.195 3.509 0 1.17-.195 2.144-.195 3.119-.195.975-.39 1.949-.585 2.729-.39.975-.585 1.754-.78 2.339l-3.704-3.704-3.509-3.704-6.043 6.043-6.043 5.848 3.509 3.899 3.704 3.704c-.78.195-1.365.39-1.949.39h-1.559c-1.754 0-3.704-.195-5.653-.975-1.949-.585-3.899-1.754-5.653-3.704-1.754-1.754-3.119-4.288-4.288-7.407-1.17-3.119-1.754-7.018-1.754-12.086 0-4.678.585-8.772 1.754-11.891 1.17-3.119 2.534-5.653 4.288-7.602 1.754-1.559 3.704-2.729 5.653-3.509 1.949-.78 3.899-1.17 5.653-1.17zm-47.563 39.961c0-3.899-.78-7.407-2.144-10.136-1.559-2.729-3.314-5.263-5.458-7.212-2.339-1.949-5.068-3.509-7.992-4.678-2.924-1.17-5.848-2.339-8.967-3.314-3.119-.78-6.238-1.559-9.162-2.339-3.119-.585-5.653-1.365-7.992-2.144-2.339-.78-4.288-1.559-5.848-2.729-1.559-.975-2.339-2.339-2.339-3.899 0-1.17.195-2.339.975-3.119.585-.78 1.365-1.365 2.534-1.754.78-.39 1.754-.585 2.924-.78 1.17-.195 2.144-.39 3.119-.39l2.144.195c.78.195 1.365.39 2.144.39.585.195 1.17.39 1.949.78l1.754.975c.585.39 1.17.975 1.559 1.365l1.17 1.365.585 2.144v2.144h25.342c-.195-5.263-1.365-9.747-3.314-13.45-2.144-3.704-4.873-6.628-7.992-8.967-3.509-2.339-7.212-3.899-11.501-4.873-4.288-.975-8.967-1.559-13.645-1.559-4.483 0-8.772.585-13.06 1.754-4.288 1.17-8.187 2.924-11.306 5.263-3.314 2.339-6.043 5.458-7.992 9.162-1.949 3.704-2.924 7.992-2.924 13.06 0 4.483.78 8.187 2.729 10.916 1.754 2.924 4.094 5.263 7.018 7.018 2.729 1.949 6.043 3.314 9.552 4.483 3.509 1.17 6.823 2.144 10.331 3.119 3.704 1.17 6.823 1.949 9.357 2.729 2.339.78 4.288 1.559 5.848 2.144 1.17.78 2.144 1.559 2.729 2.339s.975 1.754.975 2.924c0 1.754-.39 3.119-1.17 4.094-.78 1.17-1.754 1.949-2.729 2.339-1.17.78-2.534 1.17-3.704 1.365-1.365.195-2.534.195-3.509.195-1.365 0-2.729 0-3.899-.195-1.365-.195-2.534-.585-3.704-.975-1.17-.39-2.339-1.17-3.119-1.949-.975-.78-1.754-1.949-2.144-3.314-.39-.78-.585-1.559-.78-2.534-.195-.975-.195-2.144-.195-3.314h-26.9c0 7.212 1.559 12.865 4.678 16.959 3.119 4.288 6.628 7.407 10.916 9.552 4.094 2.339 8.382 3.704 12.671 4.288 4.288.78 7.602.975 10.136.975 4.678 0 9.552-.39 14.425-1.365 4.678-.975 9.162-2.729 13.06-5.263 3.704-2.339 6.823-5.263 9.162-9.162 2.339-3.899 3.704-8.772 3.704-14.62zm-126.9 28.265c7.602 0 14.23-.975 19.883-2.924 5.458-1.949 10.136-5.068 13.84-8.967 3.704-3.704 6.433-8.382 8.187-13.84 1.754-5.458 2.729-11.501 2.729-18.324 0-5.458-.78-10.916-2.144-16.179-1.365-5.263-3.509-9.941-6.628-14.23-3.119-3.899-7.212-7.212-12.281-9.747-5.068-2.534-11.111-3.899-18.324-3.899h-44.054v88.11h38.791zm-3.314-65.497c4.678 0 8.577.975 11.306 2.534 2.729 1.754 4.873 3.704 6.433 5.848 1.365 2.339 2.339 4.678 2.729 7.018.39 2.339.585 4.288.585 5.653 0 2.144-.195 4.483-.585 7.018-.39 2.534-1.365 4.873-2.729 7.018-1.365 2.339-3.314 4.094-5.848 5.653-2.534 1.559-5.848 2.339-9.942 2.339h-10.526v-43.079h8.576z"/></svg>